<?xml version="1.0" standalone="no"?>
<!DOCTYPE svg PUBLIC "-//W3C//DTD SVG 1.1//EN"
        "http://www.w3.org/Graphics/SVG/1.1/DTD/svg11.dtd">
<svg width="400px" height="400px" version="1.1"
     xmlns="http://www.w3.org/2000/svg" xmlns:xlink= "http://www.w3.org/1999/xlink">

    <image xlink:href="./sm1.jpeg" x="0" y="0" height="400px" width="400px"/>

    <path fill="#01509B" d="M92.53,61.898C86.168,52.89,77.188,49.108,70.7,47.821l0.041,0.005L17.79,37.486
	c11.67-12.349,28.101-20.033,46.352-20.033c21.627,0,40.793,10.876,52.397,27.638L92.53,61.898z M92.53,103.374
	c-6.361,9.008-15.342,12.791-21.829,14.078l0.041-0.006l-52.951,10.34c11.67,12.348,28.101,20.033,46.352,20.033
	c21.627,0,40.793-10.877,52.397-27.639L92.53,103.374z M30.795,87.194H0.128C0.934,99.333,5,110.538,11.452,119.934l34.79-6.725
	C37.477,107.835,31.952,98.413,30.795,87.194 M45.63,52.652l-34.347-6.636C4.936,55.362,0.916,66.42,0.114,78.279h30.681
	C31.923,67.325,37.222,58.086,45.63,52.652"/>

    <text x="200" y="40"
          style="font-family: sans-serif;
             font-size: 52px;
             fill: rgba(0,200,0,.7);">
        КТО-ТО
    </text>
    <text x="5" y="360"
          style="font-family: sans-serif;
             font-size: 56px;
             fill: orangered;">
        МОЛОДЕЦ
    </text>
</svg>
